<svg width="450" height="442" viewBox="0 0 450 442" fill="none" xmlns="http://www.w3.org/2000/svg">
<path d="M425.791 13.8816C412.11 2.17898 393.766 -2.48199 376.168 1.27133L347.082 7.20294L347.079 7.19959C339.021 8.85173 330.716 8.85173 322.659 7.19959L293.573 1.26798V1.27133C275.971 -2.48199 257.627 2.1795 243.946 13.8816C227.878 28.4153 219.038 49.3035 219.784 70.9689C219.784 129.799 264.175 174.046 266.063 175.907C266.756 176.581 267.683 176.96 268.648 176.96H290.008V221.691L280.35 224.687L280.347 224.684C278.606 225.227 277.518 226.959 277.793 228.766C278.064 230.572 279.614 231.906 281.438 231.906C281.81 231.906 282.178 231.849 282.529 231.738L290.008 229.419V246.959L280.35 249.955L280.346 249.952C278.402 250.555 277.314 252.623 277.916 254.57C278.519 256.517 280.584 257.609 282.529 257.006L290.007 254.687V272.227L280.349 275.223H280.346C278.605 275.766 277.521 277.498 277.792 279.301C278.066 281.107 279.613 282.441 281.437 282.441C281.809 282.441 282.177 282.387 282.529 282.277L290.007 279.958V297.494L280.349 300.49H280.346C278.401 301.093 277.313 303.161 277.915 305.108C278.518 307.055 280.583 308.148 282.528 307.544L290.007 305.225V310.986V310.983C290.023 314.83 290.338 318.67 290.954 322.471L280.346 325.762C278.401 326.365 277.313 328.433 277.915 330.38C278.518 332.327 280.583 333.416 282.528 332.812L292.554 329.703C298.158 351.25 313.128 369.143 333.34 378.439C334.311 378.881 335.429 378.881 336.4 378.439C349.311 372.524 360.258 363.023 367.94 351.07C375.619 339.113 379.713 325.203 379.737 310.99V302.659L389.392 299.663V299.66C391.337 299.057 392.425 296.989 391.822 295.042C391.219 293.095 389.154 292.006 387.209 292.609L379.737 294.928V277.381L389.392 274.385V274.389C391.337 273.785 392.425 271.718 391.822 269.771C391.22 267.824 389.154 266.735 387.209 267.338L379.738 269.653V252.117L389.392 249.121C391.337 248.518 392.425 246.45 391.822 244.5C391.22 242.553 389.154 241.464 387.21 242.067L379.738 244.386V226.85L389.392 223.854C391.337 223.25 392.425 221.183 391.823 219.236C391.22 217.289 389.155 216.2 387.21 216.803L379.738 219.118V201.582L389.393 198.586V198.589C391.338 197.986 392.426 195.919 391.823 193.972C391.22 192.025 389.155 190.935 387.21 191.539L379.738 193.858V176.961H401.099H401.096C402.063 176.965 402.99 176.586 403.68 175.912C405.571 174.052 449.956 129.804 449.956 70.9739C450.706 49.3085 441.862 28.4178 425.794 13.8866L425.791 13.8816ZM372.358 310.981C372.341 323.495 368.817 335.75 362.189 346.356C355.564 356.966 346.097 365.497 334.866 370.991C317.312 362.371 304.417 346.48 299.583 327.516L372.358 304.939V310.981ZM372.358 297.208L298.043 320.267C297.605 317.191 297.384 314.088 297.38 310.981V302.932L372.358 279.668L372.358 297.208ZM372.358 271.94L297.381 295.204V277.667L372.358 254.404V271.94ZM372.358 246.672L297.381 269.936V252.399L372.358 229.136V246.672ZM372.358 221.408L297.381 244.668V227.132L372.358 203.868V221.408ZM372.358 196.14L297.381 219.404V176.957H372.358V196.14ZM399.533 169.579L270.209 169.575C263.584 162.585 227.164 121.835 227.164 70.9681L227.161 70.9715C226.324 51.4105 234.271 32.5032 248.822 19.4236C260.769 9.24637 276.767 5.20823 292.105 8.50515L321.192 14.4368C330.216 16.2866 339.526 16.2866 348.551 14.4368L377.637 8.50515H377.641C392.976 5.2042 408.976 9.24241 420.921 19.4236C435.472 32.4998 443.419 51.4105 442.582 70.9715C442.582 121.832 406.164 162.587 399.537 169.579H399.533ZM277.528 28.5054C278.023 30.4826 276.828 32.4866 274.856 32.9893C271.274 33.8673 267.954 35.5831 265.168 37.9993C259.755 42.6943 255.835 48.8706 253.884 55.7672C253.422 57.3389 251.982 58.418 250.346 58.4214C249.994 58.4214 249.643 58.3711 249.308 58.2706C247.353 57.6976 246.235 55.65 246.804 53.6929C249.174 45.4692 253.854 38.0997 260.291 32.4633C263.96 29.2764 268.332 27.0042 273.045 25.8347C273.996 25.5934 275 25.7375 275.84 26.2402C276.68 26.7395 277.286 27.5572 277.527 28.5055L277.528 28.5054ZM201.248 174.417C187.891 162.956 169.958 158.388 152.752 162.065L124.372 167.819C116.529 169.461 108.431 169.461 100.592 167.819L72.1447 162.068C54.9386 158.396 37.0059 162.963 23.6458 174.418C7.90943 188.566 -0.737316 208.978 0.0493752 230.138C0.0493752 281.903 35.9047 322.748 43.721 331.035L43.095 404.929C43.1653 413.066 45.8132 420.967 50.657 427.499C55.5008 434.031 62.2894 438.856 70.0492 441.282C74.7491 442.784 79.8871 441.899 83.8172 438.91C90.2879 433.913 94.1007 426.212 94.1538 418.029V360.971C94.3614 356.313 96.4 351.927 99.8245 348.769C103.252 345.613 107.788 343.94 112.442 344.121C117.255 344.081 121.902 345.881 125.43 349.155C128.774 352.174 130.699 356.46 130.732 360.971V418.031V418.028C130.782 426.198 134.585 433.889 141.039 438.885C143.65 440.933 146.88 442.029 150.198 441.988C151.835 441.988 153.462 441.741 155.022 441.248C162.731 438.781 169.466 433.949 174.273 427.431C179.08 420.913 181.712 413.044 181.792 404.945L181.166 331.125C188.976 322.831 224.838 281.913 224.838 230.142C225.674 208.976 217.021 188.54 201.248 174.422L201.248 174.417ZM174.833 327.063C174.153 327.764 173.775 328.702 173.782 329.677L174.418 405.33L174.421 405.334C174.277 411.808 172.111 418.075 168.228 423.256C164.342 428.437 158.935 432.268 152.766 434.214C150.352 435.015 147.704 434.603 145.649 433.112C140.952 429.509 138.171 423.946 138.11 418.025V360.964C138.09 354.416 135.329 348.179 130.495 343.772C125.591 339.211 119.137 336.691 112.446 336.725C105.834 336.547 99.424 338.994 94.6131 343.538C89.8027 348.079 86.9875 354.342 86.7799 360.961V418.022C86.7163 423.957 83.9245 429.536 79.2112 433.139C77.2027 434.543 74.662 434.955 72.3153 434.248C66.0555 432.311 60.569 428.437 56.6424 423.183C52.7191 417.928 50.5566 411.564 50.4696 405.003L51.1089 329.592C51.1156 328.617 50.7374 327.675 50.0545 326.978C45.6893 322.524 7.42403 281.991 7.42403 230.138C6.61059 211.094 14.35 192.682 28.5233 179.951C40.1428 170.011 55.7318 166.07 70.6755 169.291L99.1095 175.038V175.041C107.927 176.884 117.032 176.884 125.849 175.041L154.219 169.287H154.222C169.169 166.073 184.755 170.018 196.384 179.951C210.577 192.662 218.317 211.08 217.464 230.124C217.464 281.991 179.199 322.606 174.833 327.059L174.833 327.063ZM51.4731 190.692C51.8982 191.576 51.9551 192.588 51.6338 193.513C51.3124 194.438 50.6362 195.199 49.7558 195.624C48.0519 196.442 46.4686 197.491 45.0459 198.741C38.4211 204.579 34.1565 212.642 33.0553 221.409C32.908 222.377 32.3824 223.248 31.5924 223.828C30.8024 224.408 29.8183 224.649 28.8508 224.502C27.8834 224.354 27.0131 223.825 26.4373 223.034C25.8582 222.246 25.6171 221.258 25.7678 220.289C27.1068 209.803 32.2285 200.169 40.1725 193.198C42.0973 191.509 44.243 190.089 46.5495 188.976C48.3839 188.091 50.5865 188.859 51.4736 190.692L51.4731 190.692Z" fill="url(#paint0_linear_275_229)"/>
<defs>
<linearGradient id="paint0_linear_275_229" x1="225" y1="0" x2="225" y2="442" gradientUnits="userSpaceOnUse">
<stop stop-color="#EDD08D"/>
<stop offset="1" stop-color="#EDD08D" stop-opacity="0"/>
</linearGradient>
</defs>
</svg>
