<svg width="104" height="105" viewBox="0 0 104 105" fill="none" xmlns="http://www.w3.org/2000/svg">
<rect y="0.661133" width="103.894" height="103.894" fill="url(#paint0_linear_275_369)"/>
<path d="M51.6389 17.9766C48.9453 17.9766 46.7443 20.1774 46.7443 22.8706C46.7443 25.2893 48.5105 27.3014 50.8229 27.6888V38.6751L35.7831 46.195C35.5009 46.3327 35.3222 46.62 35.3245 46.9347V65.1601L25.5866 70.8444C24.7172 69.4742 23.1928 68.5502 21.4573 68.5502C18.7637 68.5502 16.5627 70.751 16.5627 73.4448C16.5627 76.1378 18.7636 78.3388 21.4573 78.3388C24.1504 78.3388 26.3513 76.1379 26.3513 73.4448C26.3513 73.0795 26.3007 72.7164 26.2239 72.3739L36.0893 66.6128L51.2048 75.7639C51.4699 75.9301 51.8068 75.9301 52.0719 75.7639L67.1875 66.6128L77.0529 72.3739C76.976 72.7164 76.9254 73.0795 76.9254 73.4448C76.9254 76.1378 79.1262 78.3388 81.8194 78.3388C84.513 78.3388 86.714 76.1379 86.714 73.4448C86.714 70.7511 84.5132 68.5502 81.8194 68.5502C80.084 68.5502 78.5596 69.4742 77.6901 70.8444L67.9522 65.1601V46.9347C67.9545 46.62 67.7758 46.3327 67.4936 46.195L52.4538 38.6751V27.6888C54.7662 27.3013 56.5324 25.2893 56.5324 22.8706C56.5324 20.1775 54.3316 17.9766 51.6378 17.9766H51.6389ZM51.6389 19.6079C53.4507 19.6079 54.9015 21.0588 54.9015 22.8704C54.9015 24.6821 53.4506 26.1336 51.6389 26.1336C49.8273 26.1336 48.3764 24.6821 48.3764 22.8704C48.3764 21.0588 49.8273 19.6079 51.6389 19.6079ZM51.6389 40.1027L65.328 46.9597L51.6389 54.5564L37.9499 46.9597L51.6389 40.1027ZM36.956 48.2856L50.8231 55.9842V73.6488L36.956 65.2367V48.2856ZM66.3218 48.2856V65.2379L52.4548 73.65V55.9853L66.3218 48.2856ZM21.4574 70.1817C23.2692 70.1817 24.72 71.6332 24.72 73.4449C24.72 75.2565 23.269 76.7075 21.4574 76.7075C19.6458 76.7075 18.1942 75.2565 18.1942 73.4449C18.1942 71.6333 19.6457 70.1817 21.4574 70.1817ZM81.8205 70.1817C83.6322 70.1817 85.0836 71.6332 85.0836 73.4449C85.0836 75.2565 83.6321 76.7075 81.8205 76.7075C80.0088 76.7075 78.5579 75.2565 78.5579 73.4449C78.5579 71.6333 80.0088 70.1817 81.8205 70.1817Z" fill="white"/>
<defs>
<linearGradient id="paint0_linear_275_369" x1="51.9468" y1="0.661133" x2="51.9468" y2="104.555" gradientUnits="userSpaceOnUse">
<stop stop-color="#EDD08D"/>
<stop offset="1" stop-color="#B6A273"/>
</linearGradient>
</defs>
</svg>
