<svg width="104" height="104" viewBox="0 0 104 104" fill="none" xmlns="http://www.w3.org/2000/svg">
<rect width="103.894" height="103.894" fill="url(#paint0_linear_275_373)"/>
<g clip-path="url(#clip0_275_373)">
<path d="M85.4977 40.0174L82.0463 39.0927L78.8373 27.1188L81.364 24.5921C81.9328 24.0233 81.9328 23.1011 81.364 22.531C80.7951 21.9621 79.8717 21.9621 79.3028 22.531L76.7762 25.0577L64.8022 21.8486L63.8775 18.3973C63.6696 17.6192 62.8686 17.1563 62.0919 17.3667C61.3139 17.5746 60.8534 18.3743 61.0613 19.1523L61.986 22.6037L53.2199 31.3699L41.2447 28.1621L40.32 24.7107C40.1121 23.9327 39.3124 23.4685 38.5343 23.6802C37.7563 23.8881 37.2959 24.6878 37.5038 25.4658L38.4285 28.9172L29.6636 37.6808L26.2122 36.7561C25.4342 36.5444 24.6345 37.0086 24.4266 37.7867C24.2187 38.5647 24.6791 39.3644 25.4571 39.5723L28.9085 40.497L32.1163 52.4709L23.3501 61.2371L19.9 60.3124C19.1258 60.1045 18.3235 60.5649 18.1144 61.343C17.9065 62.121 18.3669 62.9207 19.1449 63.1286L22.595 64.0533L25.8028 76.0272L23.2761 78.5526C22.7073 79.1215 22.7073 80.0449 23.2761 80.6137C23.5605 80.8982 23.933 81.041 24.3067 81.041C24.6804 81.041 25.0528 80.8994 25.3372 80.6137L27.8626 78.0883L39.8366 81.2961L40.7625 84.7475C40.9385 85.3992 41.5265 85.829 42.1706 85.829C42.2956 85.829 42.4232 85.8137 42.5494 85.7793C43.3275 85.5714 43.7879 84.7717 43.58 83.9937L42.6553 80.5436L51.4215 71.7774L63.3954 74.9852L64.3214 78.4365C64.4961 79.087 65.0841 79.5168 65.7282 79.5168C65.8532 79.5168 65.9807 79.5015 66.107 79.4671C66.885 79.2592 67.3455 78.4595 67.1376 77.6815L66.2116 74.2301L74.9778 65.4639L78.4291 66.3886C78.5554 66.4231 78.683 66.4384 78.8067 66.4384C79.4508 66.4384 80.0388 66.0086 80.2135 65.3581C80.4214 64.58 79.961 63.7803 79.1829 63.5724L75.7316 62.6477L72.5238 50.6725L81.2887 41.9089L84.7401 42.8336C84.8663 42.8681 84.9939 42.8834 85.1176 42.8834C85.7617 42.8834 86.3497 42.4535 86.5244 41.8031C86.7336 41.025 86.2719 40.2266 85.4951 40.0174H85.4977ZM40.4934 30.9758L52.4673 34.1835L55.6751 46.1587L46.9102 54.9249L34.935 51.7171L31.7272 39.7432L40.4934 30.977V30.9758ZM34.1799 54.5321L46.1551 57.7398L49.3629 69.715L40.5967 78.4812L28.6228 75.2734L25.4138 63.2982L34.1799 54.5333V54.5321ZM64.153 72.1677L52.1791 68.9599L48.9713 56.986L57.7362 48.2198L69.7102 51.4276L72.9179 63.4028L64.153 72.1677ZM70.4652 48.6114L58.4913 45.4037L55.2835 33.4284L64.0497 24.6623L76.0236 27.87L79.2314 39.844L70.4652 48.6114Z" fill="white"/>
</g>
<defs>
<linearGradient id="paint0_linear_275_373" x1="51.9468" y1="0" x2="51.9468" y2="103.894" gradientUnits="userSpaceOnUse">
<stop stop-color="#EDD08D"/>
<stop offset="1" stop-color="#B6A273"/>
</linearGradient>
<clipPath id="clip0_275_373">
<rect width="68.5095" height="68.5108" fill="white" transform="translate(18.0684 17.3159)"/>
</clipPath>
</defs>
</svg>
