<svg width="104" height="104" viewBox="0 0 104 104" fill="none" xmlns="http://www.w3.org/2000/svg">
<rect width="103.894" height="103.894" fill="url(#paint0_linear_275_378)"/>
<path d="M36.3129 78.1377C37.1165 80.1464 38.9242 81.3522 40.9336 81.3522C42.9423 81.3522 44.951 80.1471 45.5543 78.1377L48.3667 70.7048C48.7682 69.4997 49.974 68.6961 51.1791 68.6961H52.5853C53.7904 68.6961 54.9961 69.4997 55.3977 70.7048L58.2101 78.1377C59.0137 80.1464 60.8214 81.3522 62.8308 81.3522C64.8395 81.3522 66.6479 80.1471 67.4516 78.1377L72.4737 62.8702C72.6748 62.2677 72.2726 61.8655 71.8712 61.6651C71.2686 61.464 70.8665 61.8662 70.6661 62.2677L65.8436 77.3341C65.241 78.5392 64.2363 79.1417 63.0312 79.1417C61.625 79.1417 60.6203 78.3381 60.2188 77.133L57.4064 69.7001C56.6027 67.6914 54.795 66.4855 52.5853 66.4855H51.1791C49.1704 66.4855 47.1617 67.8917 46.358 69.7001L43.9465 77.3341C43.545 78.5392 42.3392 79.3428 41.1341 79.3428C39.9289 79.3428 38.7233 78.5391 38.3217 77.3341L28.8799 48.2056C28.0762 46.197 27.6748 44.1883 27.6748 42.1787C27.6748 33.7417 33.9021 26.7108 41.9377 26.1075H43.3438C45.7547 26.1075 48.1649 26.71 50.3747 27.7147C49.571 28.3173 48.9685 29.1209 48.366 29.7234C48.1649 29.9245 48.1649 30.326 48.1649 30.527C48.1649 30.7281 48.366 30.9285 48.5664 31.1296C48.7675 31.3307 48.9678 31.3307 49.1689 31.3307C49.5704 31.3307 49.7715 31.1296 49.9726 30.9292C50.374 30.1256 51.3787 29.322 52.5839 28.5184C55.1952 27.1122 58.0075 26.3086 61.0209 26.3086H62.4271C70.4627 26.9112 76.69 33.9421 76.69 42.3799C76.69 44.3886 76.2885 46.3972 75.4849 48.4068L73.2751 54.8352C73.0741 55.4377 73.4762 55.8399 73.8777 56.0403C74.4802 56.2413 74.8824 55.8392 75.0828 55.4377L77.0915 49.0094C77.8951 46.7996 78.2966 44.5897 78.2966 42.3799C78.2966 37.9603 76.6893 33.5408 73.8769 30.327C70.8634 26.9121 66.8461 24.7023 62.2253 24.3C58.6094 23.8986 54.9934 24.7015 51.7796 26.5098C48.5651 24.9025 44.9499 24.099 41.3339 24.3C36.7132 24.7015 32.6958 26.7108 29.6824 30.327C26.87 33.7419 25.2627 37.9605 25.2627 42.3799C25.2627 44.5897 25.6642 47.0007 26.4678 49.2097L36.3129 78.1377Z" fill="white"/>
<path d="M73.8787 59.0535C74.0798 58.451 73.6776 57.8484 73.2762 57.8484C72.6736 57.6473 72.2715 58.0495 72.0711 58.451C71.87 59.0535 72.2721 59.4557 72.6736 59.6561H73.0751C73.4772 59.8571 73.8787 59.4557 73.8787 59.0535Z" fill="white"/>
<defs>
<linearGradient id="paint0_linear_275_378" x1="51.9468" y1="0" x2="51.9468" y2="103.894" gradientUnits="userSpaceOnUse">
<stop stop-color="#EDD08D"/>
<stop offset="1" stop-color="#B6A273"/>
</linearGradient>
</defs>
</svg>
